<svg width="90" height="90" viewBox="0 0 90 90" fill="none" xmlns="http://www.w3.org/2000/svg">
<rect x="2" y="2" width="86" height="86" rx="2" stroke="#1596BD" stroke-width="3"/>
<path d="M62.1644 41.1092L64.726 38.5475C66.611 36.6625 66.611 33.5933 64.726 31.7083L61.3185 28.3008C59.4335 26.4158 56.3644 26.4158 54.4794 28.3008L51.9177 30.8625L62.1644 41.1092ZM51.9177 44.5408L34.5177 61.9167H31.1102V58.5092L48.486 41.1333L51.9177 44.5408ZM48.486 34.27L26.2769 56.5033V66.75H36.5235L58.7327 44.5408L48.486 34.27ZM62.5269 58.2917C62.5269 63.5842 56.3885 66.75 50.4435 66.75C49.1144 66.75 48.0269 65.6625 48.0269 64.3333C48.0269 63.0042 49.1144 61.9167 50.4435 61.9167C54.1652 61.9167 57.6935 60.1525 57.6935 58.2917C57.6935 57.1558 56.5335 56.1892 54.721 55.3917L58.2977 51.815C60.8835 53.3375 62.5269 55.3675 62.5269 58.2917ZM27.6785 48.2625C25.3344 46.9092 23.8602 45.145 23.8602 42.5833C23.8602 38.2333 28.4277 36.2275 32.4635 34.4633C34.9527 33.3517 38.3602 31.8533 38.3602 30.5C38.3602 29.5092 36.4752 28.0833 33.5269 28.0833C30.4819 28.0833 29.1769 29.5575 29.1044 29.63C28.2585 30.6208 26.736 30.7417 25.721 29.92C24.7302 29.0983 24.5369 27.6242 25.3585 26.585C25.6244 26.2467 28.1135 23.25 33.5269 23.25C38.9402 23.25 43.1935 26.44 43.1935 30.5C43.1935 35.0192 38.5294 37.0733 34.3969 38.8858C32.1252 39.8767 28.6935 41.375 28.6935 42.5833C28.6935 43.3325 29.7327 44.0333 31.2794 44.6617L27.6785 48.2625Z" fill="#1596BD"/>
</svg>
